<?xml version="1.0" encoding="utf-8"?>
<!-- Generator: Adobe Illustrator 23.0.3, SVG Export Plug-In . SVG Version: 6.00 Build 0)  -->
<svg version="1.1" id="Livello_3" xmlns="http://www.w3.org/2000/svg" xmlns:xlink="http://www.w3.org/1999/xlink" x="0px" y="0px"
	 viewBox="0 0 379.9 166.1" style="enable-background:new 0 0 379.9 166.1;" xml:space="preserve">
<g>
	<path style="fill:#39445D;" d="M132.1,67.4c10.7,0,19.8,4.1,27.1,12.3c6.4,7,9.6,15.4,9.6,25.2c0,5.9-1.5,11.6-4.6,17.2
		c-3.2,5.8-7.5,10.4-13.1,13.8c-5.8,3.6-12.2,5.4-19.1,5.4c-7,0-13.5-1.8-19.5-5.5c-5.7-3.5-10.2-8.3-13.3-14.2
		c-2.8-5.4-4.3-11.1-4.3-17.2c0-10.5,3.9-19.5,11.7-27C113.7,70.9,122.1,67.5,132.1,67.4z M132,86.8c-5.1,0-9.4,2.1-13,6.3
		c-2.6,3.1-4,6.8-4,11.3c0,5.2,1.8,9.4,5.3,12.8c3.3,3.1,7.1,4.7,11.6,4.7c5.1,0,9.2-1.9,12.5-5.7c3-3.5,4.4-7.4,4.4-11.6
		c0-5.5-2.1-10.1-6.2-13.6C139.7,88.3,136.1,86.9,132,86.8z"/>
	<linearGradient id="SVGID_1_" gradientUnits="userSpaceOnUse" x1="72.876" y1="135.9359" x2="20.8617" y2="49.3696">
		<stop  offset="0" style="stop-color:#32BEF0"/>
		<stop  offset="0.7323" style="stop-color:#2A3284"/>
	</linearGradient>
	<path style="fill:url(#SVGID_1_);" d="M81.2,79.7c-7.4-8.2-16.4-12.3-27.1-12.3c-6.4,0.1-12.1,1.4-17.2,4.1V51.7H17v52.6h0
		c0,0,0,0.1,0,0.1c0,6.1,1.4,11.8,4.3,17.2c3.1,5.9,7.5,10.6,13.3,14.2c6,3.6,12.4,5.5,19.5,5.5c6.9,0,13.3-1.8,19.1-5.4
		c5.5-3.4,9.9-8,13.1-13.8c3.1-5.6,4.6-11.3,4.6-17.2C90.8,95,87.6,86.7,81.2,79.7z M66.5,116.2c-3.3,3.8-7.4,5.7-12.5,5.7
		c-4.5,0-8.4-1.6-11.6-4.7c-3.5-3.4-5.3-7.6-5.3-12.8c0-4.5,1.3-8.3,4-11.3c3.5-4.2,7.9-6.3,13-6.3c4.1,0.1,7.6,1.5,10.8,4.1
		c4.1,3.5,6.2,8.1,6.2,13.6C70.9,108.8,69.4,112.7,66.5,116.2z"/>
	<linearGradient id="SVGID_2_" gradientUnits="userSpaceOnUse" x1="17.0213" y1="43.1169" x2="36.8782" y2="43.1169">
		<stop  offset="1.263787e-03" style="stop-color:#F39325"/>
		<stop  offset="1" style="stop-color:#E83943"/>
	</linearGradient>
	<rect x="17" y="38.3" style="fill:url(#SVGID_2_);" width="19.9" height="9.7"/>
	<linearGradient id="SVGID_3_" gradientUnits="userSpaceOnUse" x1="17.0213" y1="29.7315" x2="36.8782" y2="29.7315">
		<stop  offset="0" style="stop-color:#00AF94"/>
		<stop  offset="1" style="stop-color:#FCDC30"/>
	</linearGradient>
	<rect x="17" y="24.9" style="fill:url(#SVGID_3_);" width="19.9" height="9.7"/>
	<path style="fill:#39445D;" d="M362.8,104.3L362.8,104.3l0-59.8H343v27c-5.1-2.7-10.7-4.1-16.9-4.1c-10,0.1-18.5,3.4-25.3,10
		c-7.8,7.5-11.7,16.5-11.7,27c0,6.1,1.4,11.8,4.3,17.2c3.1,5.9,7.5,10.6,13.3,14.2c6,3.6,12.4,5.5,19.5,5.5c6.9,0,13.3-1.8,19.1-5.4
		c5.5-3.4,9.9-8,13.1-13.8c3.1-5.6,4.6-11.3,4.6-17.2C362.8,104.7,362.8,104.5,362.8,104.3z M338.6,116.2c-3.3,3.8-7.4,5.7-12.5,5.7
		c-4.5,0-8.4-1.6-11.6-4.7c-3.5-3.4-5.3-7.6-5.3-12.8c0-4.5,1.3-8.3,4-11.3c3.5-4.2,7.9-6.3,13-6.3c4.1,0.1,7.6,1.5,10.8,4.1
		c4.1,3.5,6.2,8.1,6.2,13.6C343,108.8,341.5,112.7,338.6,116.2z"/>
	<path style="fill:#39445D;" d="M273,141.2h-19.9v-39.8c0-5.2,0.2-8.9,0.5-11.2c0.3-2.3,1-4.6,2.1-6.8c5-10.6,14.2-15.9,27.9-15.9
		c0.7,0,1.7,0,3.2,0.1v18.3l-2.4,0.1c-4.4,0.1-7.4,0.9-8.9,2.5c-1.6,1.6-2.4,4.5-2.4,8.6V141.2z"/>
	<path style="fill:#39445D;" d="M210.2,67.4c10.7,0,19.8,4.1,27.1,12.3c6.4,7,9.6,15.4,9.6,25.2c0,5.9-1.5,11.6-4.6,17.2
		c-3.2,5.8-7.5,10.4-13.1,13.8c-5.8,3.6-12.2,5.4-19.1,5.4c-7,0-13.5-1.8-19.5-5.5c-5.7-3.5-10.2-8.3-13.3-14.2
		c-2.8-5.4-4.3-11.1-4.3-17.2c0-10.5,3.9-19.5,11.7-27C191.7,70.9,200.2,67.5,210.2,67.4z M210.1,86.8c-5.1,0-9.4,2.1-13,6.3
		c-2.6,3.1-4,6.8-4,11.3c0,5.2,1.8,9.4,5.3,12.8c3.3,3.1,7.1,4.7,11.6,4.7c5.1,0,9.2-1.9,12.5-5.7c3-3.5,4.4-7.4,4.4-11.6
		c0-5.5-2.1-10.1-6.2-13.6C217.8,88.3,214.2,86.9,210.1,86.8z"/>
	<rect x="228.8" y="104.3" style="fill:#39445D;" width="18.1" height="36.8"/>
</g>
</svg>